<svg width="400" height="100" version="1.1" xmlns="http://www.w3.org/2000/svg" xmlns:xlink="http://www.w3.org/1999/xlink"><g><path d="M 10 50 C 10 20 160 12 200 12 S 390 20 390 50 S 240 88 200 88 S 10 80 10 50 Z " fill="#888888" stroke="#444444" stroke-width="8px"></path><path d="M 288 26 A 8 8 0 0 1 296 34 L 296 66 A 8 8 0 0 1 288 74 L 112 74 A 8 8 0 0 1 104 66 L 104 34 A 8 8 0 0 1 112 26 Z " fill="#aaaaaa" stroke="#444444" stroke-width="8px"></path><g><path d="M 137 47 L 173 11 M 143 53 L 179 17" stroke="#333333" stroke-width="8px"></path><circle cx="140" cy="50" r="16" fill="#888888" stroke="#444444" stroke-width="6px"></circle></g><g><path d="M 197 47 L 233 11 M 203 53 L 239 17" stroke="#333333" stroke-width="8px"></path><circle cx="200" cy="50" r="16" fill="#888888" stroke="#444444" stroke-width="6px"></circle></g><g><path d="M 257 47 L 293 11 M 263 53 L 299 17" stroke="#333333" stroke-width="8px"></path><circle cx="260" cy="50" r="16" fill="#888888" stroke="#444444" stroke-width="6px"></circle></g></g></svg>