<svg width="500" height="100" version="1.1" xmlns="http://www.w3.org/2000/svg" xmlns:xlink="http://www.w3.org/1999/xlink"><g><path d="M 20 50 L 20 86 L 100 92 L 480 92 L 480 32 L 420 32 L 240 8 L 100 8 L 20 32 Z " fill="#aaaaaa" stroke-width="8px" stroke="#444444" stroke-linejoin="round"></path><path d="M 200 84 L 472 84 L 472 40 L 200 40 Z " fill="#333333"></path><path d="M 222 62 L 464 62" stroke-width="4px" stroke="yellow" stroke-dasharray="18,24" stroke-linecap="round"></path><path d="M 156 40 A 4 4 0 0 1 160 44 L 160 72 A 4 4 0 0 1 156 76 L 44 76 A 4 4 0 0 1 40 72 L 40 44 A 4 4 0 0 1 44 40 Z " fill="#aaaaaa" stroke-width="8px" stroke="#444444" stroke-linejoin="round"></path><circle cx="128" cy="22" r="6" fill="#dd0000"></circle><g transform="translate(196, 14) rotate(135) scale(0.32, 0.32) translate(-196, -14)"><path d="M 196 14 C 196 13 216 10 236 10 L 275 13 L 275 15 L 236 18 C 216 18 196 15 196 14 Z  M 224 14 L 256 -14 L 264 -16 L 256 14 L 264 44 L 256 42 Z  M 260 14 L 274 5 L 276 5 L 272 14 L 276 23 L 274 23 Z " fill="#444444" stroke-width="3px" stroke="#444444" stroke-linejoin="round"></path></g><g transform="translate(220, 14) rotate(135) scale(0.32, 0.32) translate(-220, -14)"><path d="M 220 14 C 220 13 240 10 260 10 L 299 13 L 299 15 L 260 18 C 240 18 220 15 220 14 Z  M 248 14 L 280 -14 L 288 -16 L 280 14 L 288 44 L 280 42 Z  M 284 14 L 298 5 L 300 5 L 296 14 L 300 23 L 298 23 Z " fill="#444444" stroke-width="3px" stroke="#444444" stroke-linejoin="round"></path></g><g transform="translate(244, 14) rotate(135) scale(0.32, 0.32) translate(-244, -14)"><path d="M 244 14 C 244 13 264 10 284 10 L 323 13 L 323 15 L 284 18 C 264 18 244 15 244 14 Z  M 272 14 L 304 -14 L 312 -16 L 304 14 L 312 44 L 304 42 Z  M 308 14 L 322 5 L 324 5 L 320 14 L 324 23 L 322 23 Z " fill="#444444" stroke-width="3px" stroke="#444444" stroke-linejoin="round"></path></g><g transform="translate(268, 14) rotate(135) scale(0.32, 0.32) translate(-268, -14)"><path d="M 268 14 C 268 13 288 10 308 10 L 347 13 L 347 15 L 308 18 C 288 18 268 15 268 14 Z  M 296 14 L 328 -14 L 336 -16 L 328 14 L 336 44 L 328 42 Z  M 332 14 L 346 5 L 348 5 L 344 14 L 348 23 L 346 23 Z " fill="#444444" stroke-width="3px" stroke="#444444" stroke-linejoin="round"></path></g><g transform="translate(292, 14) rotate(135) scale(0.32, 0.32) translate(-292, -14)"><path d="M 292 14 C 292 13 312 10 332 10 L 371 13 L 371 15 L 332 18 C 312 18 292 15 292 14 Z  M 320 14 L 352 -14 L 360 -16 L 352 14 L 360 44 L 352 42 Z  M 356 14 L 370 5 L 372 5 L 368 14 L 372 23 L 370 23 Z " fill="#444444" stroke-width="3px" stroke="#444444" stroke-linejoin="round"></path></g><g transform="translate(196, 37) rotate(135) scale(0.32, 0.32) translate(-196, -37)"><path d="M 196 37 C 196 36 216 33 236 33 L 275 36 L 275 38 L 236 41 C 216 41 196 38 196 37 Z  M 224 37 L 256 9 L 264 7 L 256 37 L 264 67 L 256 65 Z  M 260 37 L 274 28 L 276 28 L 272 37 L 276 46 L 274 46 Z " fill="#444444" stroke-width="3px" stroke="#444444" stroke-linejoin="round"></path></g><g transform="translate(196, 60) rotate(135) scale(0.32, 0.32) translate(-196, -60)"><path d="M 196 60 C 196 59 216 56 236 56 L 275 59 L 275 61 L 236 64 C 216 64 196 61 196 60 Z  M 224 60 L 256 32 L 264 30 L 256 60 L 264 90 L 256 88 Z  M 260 60 L 274 51 L 276 51 L 272 60 L 276 69 L 274 69 Z " fill="#444444" stroke-width="3px" stroke="#444444" stroke-linejoin="round"></path></g></g></svg>