<svg width="300" height="100" version="1.1" xmlns="http://www.w3.org/2000/svg" xmlns:xlink="http://www.w3.org/1999/xlink"><g><path d="M 20 50 L 20 26 Q 260 12 280 50 Q 260 88 20 74 Z " fill="#aaaaaa" stroke="#444444" stroke-width="8px" stroke-linejoin="round"></path><path d="M 92 34 A 8 8 0 0 1 100 42 L 100 58 A 8 8 0 0 1 92 66 L 48 66 A 8 8 0 0 1 40 58 L 40 42 A 8 8 0 0 1 48 34 Z " fill="#aaaaaa" stroke="#444444" stroke-width="8px" stroke-linejoin="round"></path><path d="M 160 38 L 220 38 M 160 50 L 220 50 M 160 62 L 220 62" stroke="#333333" stroke-width="8px"></path><path d="M 172 32 A 8 8 0 0 1 180 40 L 180 60 A 8 8 0 0 1 172 68 L 148 68 A 8 8 0 0 1 140 60 L 140 40 A 8 8 0 0 1 148 32 Z " fill="#aaaaaa" stroke="#444444" stroke-width="8px" stroke-linejoin="round"></path></g></svg>