<svg width="200" height="100" version="1.1" xmlns="http://www.w3.org/2000/svg" xmlns:xlink="http://www.w3.org/1999/xlink"><g><path d="M 13 74 Q 30 74 30 66 L 30 34 Q 30 26 13 26 Z " fill="#888888" stroke-width="8px" stroke="#444444" stroke-linejoin="round"></path><path d="M 10 54 Q 60 74 80 74 L 146 74 Q 170 74 170 50 Q 170 26 146 26 L 80 26 Q 60 26 10 46 Z " fill="#888888" stroke-width="8px" stroke="#444444" stroke-linejoin="round"></path><path d="M 80 71 L 80 66 M 80 29 L 80 34 M 98 71 L 98 66 M 98 29 L 98 34 M 116 71 L 116 66 M 116 29 L 116 34 M 134 71 L 134 66 M 134 29 L 134 34" fill="null" stroke-width="8px" stroke="#333333" stroke-linecap="round"></path><path d="M 146 66 Q 162 66 162 50 Q 162 34 146 34 Z " fill="#aabbff" stroke-width="4px" stroke="#444444" stroke-linejoin="round"></path></g></svg>